<svg xmlns="http://www.w3.org/2000/svg" width="600" height="800" viewBox="0 0 600 800">
  <defs>
    <linearGradient id="bg" x1="0" y1="0" x2="1" y2="1">
      <stop offset="0" stop-color="#22d3ee"/>
      <stop offset="0.55" stop-color="#155e75"/>
      <stop offset="1" stop-color="#02141a"/>
    </linearGradient>
    <radialGradient id="glow" cx="0.5" cy="0.42" r="0.6">
      <stop offset="0" stop-color="#67e8f9" stop-opacity="0.5"/>
      <stop offset="1" stop-color="#67e8f9" stop-opacity="0"/>
    </radialGradient>
    <radialGradient id="ring">
      <stop offset="0.75" stop-color="#000" stop-opacity="0"/>
      <stop offset="1" stop-color="#000" stop-opacity="0.35"/>
    </radialGradient>
    <linearGradient id="sheen" x1="0" y1="0" x2="0" y2="1">
      <stop offset="0" stop-color="#ffffff" stop-opacity="0.22"/>
      <stop offset="0.4" stop-color="#ffffff" stop-opacity="0"/>
    </linearGradient>
  </defs>
  <rect width="600" height="800" fill="url(#bg)"/>
  <rect width="600" height="800" fill="url(#glow)"/>
  <ellipse cx="300" cy="420" rx="217" ry="217" fill="url(#sheen)"/>
  <g opacity="0.12">
    <circle cx="60" cy="120" r="120" fill="#ffffff"/>
    <circle cx="540" cy="700" r="150" fill="#ffffff"/>
    <circle cx="530" cy="90" r="60" fill="#ffffff"/>
  </g>
  
    <g transform="translate(300,400)">
      <ellipse cx="0" cy="0" rx="140" ry="80" fill="#0ea5e9" stroke="#075985" stroke-width="7"/>
      <ellipse cx="0" cy="0" rx="74" ry="54" fill="#38bdf8" stroke="#0ea5e9" stroke-width="6"/>
      <path d="M 0 -78 L 26 -120 L 0 -105 L -26 -120 Z" fill="#0ea5e9" stroke="#075985" stroke-width="4"/>
      <polygon points="140,0 230,60 230,-60" fill="#0ea5e9" stroke="#075985" stroke-width="5"/>
      <polygon points="140,0 195,30 195,-30" fill="#7dd3fc"/>
      <circle cx="-62" cy="-22" r="11" fill="#0f172a"/>
      <circle cx="-14" cy="-22" r="11" fill="#0f172a"/>
      <circle cx="-60" cy="-24" r="4" fill="#ffffff"/>
      <circle cx="-12" cy="-24" r="4" fill="#ffffff"/>
      <path d="M -80 10 Q -40 32 0 10 M -70 34 Q -30 56 10 34" stroke="#0f172a" stroke-width="4" fill="none" opacity="0.5"/>
      
    <circle cx="90" cy="90" r="30" fill="#fde047"/>
    <circle cx="90" cy="90" r="30" fill="url(#ring)" opacity="0.9"/>
    <circle cx="83.4" cy="83.4" r="9.6" fill="#ffffff" opacity="0.35"/>
    <polygon points="90,73.5 95.4,85.2 105.9,85.2 97.5,94.2 100.2,105 90,98.1 79.8,105 82.5,94.2 74.1,85.2 84.6,85.2" fill="#b45309" opacity="0.85"/>
      
    <circle cx="-100" cy="100" r="24" fill="#fde047"/>
    <circle cx="-100" cy="100" r="24" fill="url(#ring)" opacity="0.9"/>
    <circle cx="-105.28" cy="94.72" r="7.68" fill="#ffffff" opacity="0.35"/>
    <polygon points="-100,86.8 -95.68,96.16 -87.28,96.16 -94,103.36 -91.84,112 -100,106.48 -108.16,112 -106,103.36 -112.72,96.16 -104.32,96.16" fill="#b45309" opacity="0.85"/>
      <path d="M -200 -140 Q -150 -160 -110 -120 M 160 140 Q 210 130 240 90" stroke="#a7f3d0" stroke-width="4" fill="none" stroke-linecap="round" opacity="0.5"/>
    </g>
  <rect x="0" y="0" width="600" height="800" fill="none" stroke="rgba(0,0,0,0.35)" stroke-width="1"/>
</svg>
