<svg xmlns="http://www.w3.org/2000/svg" width="600" height="800" viewBox="0 0 600 800">
  <defs>
    <linearGradient id="bg" x1="0" y1="0" x2="1" y2="1">
      <stop offset="0" stop-color="#e4e4e7"/>
      <stop offset="0.55" stop-color="#44403c"/>
      <stop offset="1" stop-color="#0c0a09"/>
    </linearGradient>
    <radialGradient id="glow" cx="0.5" cy="0.42" r="0.6">
      <stop offset="0" stop-color="#fafafa" stop-opacity="0.5"/>
      <stop offset="1" stop-color="#fafafa" stop-opacity="0"/>
    </radialGradient>
    <radialGradient id="ring">
      <stop offset="0.75" stop-color="#000" stop-opacity="0"/>
      <stop offset="1" stop-color="#000" stop-opacity="0.35"/>
    </radialGradient>
    <linearGradient id="sheen" x1="0" y1="0" x2="0" y2="1">
      <stop offset="0" stop-color="#ffffff" stop-opacity="0.22"/>
      <stop offset="0.4" stop-color="#ffffff" stop-opacity="0"/>
    </linearGradient>
  </defs>
  <rect width="600" height="800" fill="url(#bg)"/>
  <rect width="600" height="800" fill="url(#glow)"/>
  <ellipse cx="300" cy="420" rx="217" ry="217" fill="url(#sheen)"/>
  <g opacity="0.12">
    <circle cx="60" cy="120" r="120" fill="#ffffff"/>
    <circle cx="540" cy="700" r="150" fill="#ffffff"/>
    <circle cx="530" cy="90" r="60" fill="#ffffff"/>
  </g>
  
    <g transform="translate(300,400)">
      
    <g transform="rotate(-12 -30 50)">
      <rect x="-95" y="-40" width="130" height="180" rx="11.7" fill="#064e3b" stroke="#ffffff" stroke-opacity="0.85" stroke-width="3"/>
      <text x="-30" y="50" text-anchor="middle" dominant-baseline="central" font-family="Georgia, serif" font-size="71.5" font-weight="bold" fill="#e5e7eb">♠</text>
      <rect x="-89" y="-34" width="118" height="168" rx="10.62" fill="none" stroke="#ffffff" stroke-opacity="0.3" stroke-width="1.5"/>
    </g>
      
    <g transform="rotate(4 75 30)">
      <rect x="10" y="-60" width="130" height="180" rx="11.7" fill="#065f46" stroke="#ffffff" stroke-opacity="0.85" stroke-width="3"/>
      <text x="75" y="30" text-anchor="middle" dominant-baseline="central" font-family="Georgia, serif" font-size="71.5" font-weight="bold" fill="#e5e7eb">♣</text>
      <rect x="16" y="-54" width="118" height="168" rx="10.62" fill="none" stroke="#ffffff" stroke-opacity="0.3" stroke-width="1.5"/>
    </g>
      
    <g transform="rotate(16 160 60)">
      <rect x="95" y="-30" width="130" height="180" rx="11.7" fill="#f59e0b" stroke="#ffffff" stroke-opacity="0.85" stroke-width="3"/>
      <text x="160" y="60" text-anchor="middle" dominant-baseline="central" font-family="Georgia, serif" font-size="71.5" font-weight="bold" fill="#e5e7eb">♦</text>
      <rect x="101" y="-24" width="118" height="168" rx="10.62" fill="none" stroke="#ffffff" stroke-opacity="0.3" stroke-width="1.5"/>
    </g>
      
    <circle cx="-90" cy="130" r="34" fill="#10b981"/>
    <circle cx="-90" cy="130" r="34" fill="url(#ring)" opacity="0.9"/>
    <circle cx="-97.48" cy="122.52" r="10.88" fill="#ffffff" opacity="0.35"/>
    <polygon points="-90,111.3 -83.88,124.56 -71.98,124.56 -81.5,134.76 -78.44,147 -90,139.18 -101.56,147 -98.5,134.76 -108.02,124.56 -96.12,124.56" fill="#065f46" opacity="0.85"/>
      
    <circle cx="60" cy="140" r="26" fill="#34d399"/>
    <circle cx="60" cy="140" r="26" fill="url(#ring)" opacity="0.9"/>
    <circle cx="54.28" cy="134.28" r="8.32" fill="#ffffff" opacity="0.35"/>
    <polygon points="60,125.7 64.68,135.84 73.78,135.84 66.5,143.64 68.84,153 60,147.02 51.16,153 53.5,143.64 46.22,135.84 55.32,135.84" fill="#065f46" opacity="0.85"/>
      <circle cx="40" cy="196" r="20" fill="#fbbf24"/>
      <polygon points="40,178 48,192 64,194 52,204 55,220 40,212 25,220 28,204 16,194 32,192" fill="#92400e"/>
    </g>
  <rect x="0" y="0" width="600" height="800" fill="none" stroke="rgba(0,0,0,0.35)" stroke-width="1"/>
</svg>
