<svg xmlns="http://www.w3.org/2000/svg" width="600" height="800" viewBox="0 0 600 800">
  <defs>
    <linearGradient id="bg" x1="0" y1="0" x2="1" y2="1">
      <stop offset="0" stop-color="#2dd4bf"/>
      <stop offset="0.55" stop-color="#134e4a"/>
      <stop offset="1" stop-color="#02100e"/>
    </linearGradient>
    <radialGradient id="glow" cx="0.5" cy="0.42" r="0.6">
      <stop offset="0" stop-color="#5eead4" stop-opacity="0.5"/>
      <stop offset="1" stop-color="#5eead4" stop-opacity="0"/>
    </radialGradient>
    <radialGradient id="ring">
      <stop offset="0.75" stop-color="#000" stop-opacity="0"/>
      <stop offset="1" stop-color="#000" stop-opacity="0.35"/>
    </radialGradient>
    <linearGradient id="sheen" x1="0" y1="0" x2="0" y2="1">
      <stop offset="0" stop-color="#ffffff" stop-opacity="0.22"/>
      <stop offset="0.4" stop-color="#ffffff" stop-opacity="0"/>
    </linearGradient>
  </defs>
  <rect width="600" height="800" fill="url(#bg)"/>
  <rect width="600" height="800" fill="url(#glow)"/>
  <ellipse cx="300" cy="420" rx="217" ry="217" fill="url(#sheen)"/>
  <g opacity="0.12">
    <circle cx="60" cy="120" r="120" fill="#ffffff"/>
    <circle cx="540" cy="700" r="150" fill="#ffffff"/>
    <circle cx="530" cy="90" r="60" fill="#ffffff"/>
  </g>
  
    <g transform="translate(300,400)">
      <path d="M -170 170 L -120 130 L -60 140 L 0 60 L 70 20 L 150 -90 L 175 -170" stroke="#5eead4" stroke-width="10" fill="none" stroke-linecap="round" stroke-linejoin="round"/>
      <path d="M -170 170 L -120 130 L -60 140 L 0 60 L 70 20 L 150 -90 L 175 -170" stroke="#fde047" stroke-width="4" fill="none" stroke-linecap="round" stroke-linejoin="round" opacity="0.7"/>
      <circle cx="175" cy="-170" r="16" fill="#fde047"/>
      <path d="M -180 170 L 190 170 M -180 30 L 190 30 M -180 -110 L 190 -110" stroke="#0f766e" stroke-width="4" stroke-linecap="round" opacity="0.6"/>
    </g>
  <rect x="0" y="0" width="600" height="800" fill="none" stroke="rgba(0,0,0,0.35)" stroke-width="1"/>
</svg>
