<svg xmlns="http://www.w3.org/2000/svg" width="600" height="800" viewBox="0 0 600 800">
  <defs>
    <linearGradient id="bg" x1="0" y1="0" x2="1" y2="1">
      <stop offset="0" stop-color="#f9a8d4"/>
      <stop offset="0.55" stop-color="#be185d"/>
      <stop offset="1" stop-color="#2a0416"/>
    </linearGradient>
    <radialGradient id="glow" cx="0.5" cy="0.42" r="0.6">
      <stop offset="0" stop-color="#fbcfe8" stop-opacity="0.5"/>
      <stop offset="1" stop-color="#fbcfe8" stop-opacity="0"/>
    </radialGradient>
    <radialGradient id="ring">
      <stop offset="0.75" stop-color="#000" stop-opacity="0"/>
      <stop offset="1" stop-color="#000" stop-opacity="0.35"/>
    </radialGradient>
    <linearGradient id="sheen" x1="0" y1="0" x2="0" y2="1">
      <stop offset="0" stop-color="#ffffff" stop-opacity="0.22"/>
      <stop offset="0.4" stop-color="#ffffff" stop-opacity="0"/>
    </linearGradient>
  </defs>
  <rect width="600" height="800" fill="url(#bg)"/>
  <rect width="600" height="800" fill="url(#glow)"/>
  <ellipse cx="300" cy="420" rx="217" ry="217" fill="url(#sheen)"/>
  <g opacity="0.12">
    <circle cx="60" cy="120" r="120" fill="#ffffff"/>
    <circle cx="540" cy="700" r="150" fill="#ffffff"/>
    <circle cx="530" cy="90" r="60" fill="#ffffff"/>
  </g>
  
    <g transform="translate(300,400)">
      <circle cx="-108" cy="-40" r="62" fill="#fb7185" stroke="#ffffff" stroke-width="5" stroke-opacity="0.5"/>
          <ellipse cx="-124" cy="-58" rx="14" ry="10" fill="#ffffff" opacity="0.4" transform="rotate(-25 -108 -40)"/><circle cx="0" cy="-40" r="50" fill="#f472b6" stroke="#ffffff" stroke-width="5" stroke-opacity="0.5"/>
          <ellipse cx="-16" cy="-58" rx="14" ry="10" fill="#ffffff" opacity="0.4" transform="rotate(-25 0 -40)"/><circle cx="108" cy="-40" r="62" fill="#fde047" stroke="#ffffff" stroke-width="5" stroke-opacity="0.5"/>
          <ellipse cx="92" cy="-58" rx="14" ry="10" fill="#ffffff" opacity="0.4" transform="rotate(-25 108 -40)"/><circle cx="-108" cy="56" r="50" fill="#34d399" stroke="#ffffff" stroke-width="5" stroke-opacity="0.5"/>
          <ellipse cx="-124" cy="38" rx="14" ry="10" fill="#ffffff" opacity="0.4" transform="rotate(-25 -108 56)"/><circle cx="0" cy="56" r="62" fill="#fb7185" stroke="#ffffff" stroke-width="5" stroke-opacity="0.5"/>
          <ellipse cx="-16" cy="38" rx="14" ry="10" fill="#ffffff" opacity="0.4" transform="rotate(-25 0 56)"/><circle cx="108" cy="56" r="50" fill="#f472b6" stroke="#ffffff" stroke-width="5" stroke-opacity="0.5"/>
          <ellipse cx="92" cy="38" rx="14" ry="10" fill="#ffffff" opacity="0.4" transform="rotate(-25 108 56)"/>
      <circle cx="-108" cy="-136" r="20" fill="#ffffff" opacity="0.5"/>
      <circle cx="108" cy="-136" r="14" fill="#ffffff" opacity="0.4"/>
      <circle cx="108" cy="152" r="18" fill="#ffffff" opacity="0.4"/>
    </g>
  <rect x="0" y="0" width="600" height="800" fill="none" stroke="rgba(0,0,0,0.35)" stroke-width="1"/>
</svg>
